<svg width="154" height="154" viewBox="0 0 154 154" fill="none" xmlns="http://www.w3.org/2000/svg">
<path d="M69.7812 104.72L70.0941 123.97L51.8787 117.738L33.6875 123.97L33.8319 115.5C42.42 115.469 50.7513 112.568 57.5008 107.257C64.2502 101.947 69.0302 94.5318 71.0806 86.1919L81.3312 89.3441L69.7812 104.72Z" fill="#FDA736"/>
<path d="M71.0805 86.1918C69.0301 94.5316 64.2501 101.947 57.5007 107.257C50.7512 112.568 42.4199 115.469 33.8318 115.5L34.0002 104.72C30.3668 99.9074 32.7971 103.132 22.4502 89.344L40.9061 83.6893L51.9508 67.9524C59.5786 78.8046 57.0761 75.1711 63.0196 83.6893L71.0805 86.1918Z" fill="#FED370"/>
<path d="M51.8787 120.312C33.1099 126.737 33.6633 126.954 32.2677 125.943C30.8721 124.932 31.2571 125.943 31.5699 105.538C19.8996 89.9937 19.5387 90.2824 20.1643 88.6943C20.7899 87.1062 19.8033 87.7318 39.4143 81.7162L40.9062 79.4062C41.0894 79.1471 41.3219 78.9266 41.5904 78.7573C41.8589 78.5881 42.1581 78.4734 42.4709 78.4197C42.7837 78.3661 43.1041 78.3746 43.4136 78.4448C43.7231 78.515 44.0158 78.6454 44.2749 78.8287C44.534 79.0119 44.7545 79.2445 44.9238 79.513C45.093 79.7814 45.2077 80.0806 45.2613 80.3934C45.315 80.7063 45.3065 81.0266 45.2363 81.3361C45.1661 81.6456 45.0357 81.9383 44.8524 82.1974C41.6762 86.6971 44.8524 84.9405 26.4687 90.5952C36.623 104.07 36.4787 103.541 36.4546 104.72L36.0937 120.577L51.1087 115.5C52.1915 115.139 51.5658 115.139 67.6396 120.625V118.002C67.6396 117.364 67.8931 116.752 68.3444 116.301C68.7956 115.85 69.4077 115.596 70.0458 115.596C70.684 115.596 71.2961 115.85 71.7473 116.301C72.1986 116.752 72.4521 117.364 72.4521 118.002C72.4521 124.186 72.8852 125.221 71.5618 126.063C70.2383 126.906 70.6715 126.713 51.8787 120.312ZM67.3749 108.281C67.3749 102.699 65.7387 106.019 77.3127 90.6193C61.1668 85.6384 61.5999 85.9993 60.9262 85.0368L51.8787 72.1874L50.3387 74.4012C49.9609 74.8884 49.4106 75.2121 48.8011 75.3055C48.1917 75.3988 47.5697 75.2546 47.0635 74.9027C46.5572 74.5508 46.2054 74.018 46.0805 73.4143C45.9556 72.8105 46.0673 72.1819 46.3924 71.658C52.8412 62.418 50.6515 62.033 64.4393 81.668L82.029 87.0821C82.4004 87.1939 82.7393 87.3938 83.0168 87.6648C83.2943 87.9358 83.5021 88.2699 83.6227 88.6386C83.7432 89.0072 83.7728 89.3996 83.709 89.7822C83.6452 90.1648 83.4898 90.5263 83.2561 90.8359L72.1874 105.514V108.281C72.1874 108.919 71.9339 109.531 71.4826 109.983C71.0314 110.434 70.4193 110.687 69.7812 110.687C69.143 110.687 68.5309 110.434 68.0797 109.983C67.6284 109.531 67.3749 108.919 67.3749 108.281Z" fill="#35214C"/>
<path d="M129.938 105.875C129.938 105.237 129.684 104.625 129.233 104.174C128.781 103.722 128.169 103.469 127.531 103.469C126.893 103.469 126.281 103.215 125.83 102.764C125.379 102.313 125.125 101.701 125.125 101.062C125.125 100.424 125.379 99.8123 125.83 99.361C126.281 98.9098 126.893 98.6562 127.531 98.6562C128.169 98.6562 128.781 98.4027 129.233 97.9515C129.684 97.5002 129.938 96.8882 129.938 96.25C129.938 95.6118 130.191 94.9998 130.642 94.5485C131.094 94.0973 131.706 93.8438 132.344 93.8438C132.982 93.8438 133.594 94.0973 134.045 94.5485C134.496 94.9998 134.75 95.6118 134.75 96.25C134.75 96.8882 135.004 97.5002 135.455 97.9515C135.906 98.4027 136.518 98.6562 137.156 98.6562C137.794 98.6562 138.406 98.9098 138.858 99.361C139.309 99.8123 139.562 100.424 139.562 101.062C139.562 101.701 139.309 102.313 138.858 102.764C138.406 103.215 137.794 103.469 137.156 103.469C136.518 103.469 135.906 103.722 135.455 104.174C135.004 104.625 134.75 105.237 134.75 105.875C134.75 106.513 134.496 107.125 134.045 107.576C133.594 108.028 132.982 108.281 132.344 108.281C131.706 108.281 131.094 108.028 130.642 107.576C130.191 107.125 129.938 106.513 129.938 105.875Z" fill="#FD7504"/>
<path d="M21.6562 50.5312C21.6562 49.8931 21.4027 49.281 20.9515 48.8298C20.5002 48.3785 19.8882 48.125 19.25 48.125C18.6118 48.125 17.9998 47.8715 17.5485 47.4202C17.0973 46.969 16.8438 46.3569 16.8438 45.7188C16.8438 45.0806 17.0973 44.4685 17.5485 44.0173C17.9998 43.566 18.6118 43.3125 19.25 43.3125C19.8882 43.3125 20.5002 43.059 20.9515 42.6077C21.4027 42.1565 21.6562 41.5444 21.6562 40.9062C21.6562 40.2681 21.9098 39.656 22.361 39.2048C22.8123 38.7535 23.4243 38.5 24.0625 38.5C24.7007 38.5 25.3127 38.7535 25.764 39.2048C26.2152 39.656 26.4688 40.2681 26.4688 40.9062C26.4688 41.5444 26.7223 42.1565 27.1735 42.6077C27.6248 43.059 28.2368 43.3125 28.875 43.3125C29.5132 43.3125 30.1252 43.566 30.5765 44.0173C31.0277 44.4685 31.2812 45.0806 31.2812 45.7188C31.2812 46.3569 31.0277 46.969 30.5765 47.4202C30.1252 47.8715 29.5132 48.125 28.875 48.125C28.2368 48.125 27.6248 48.3785 27.1735 48.8298C26.7223 49.281 26.4688 49.8931 26.4688 50.5312C26.4688 51.1694 26.2152 51.7815 25.764 52.2327C25.3127 52.684 24.7007 52.9375 24.0625 52.9375C23.4243 52.9375 22.8123 52.684 22.361 52.2327C21.9098 51.7815 21.6562 51.1694 21.6562 50.5312Z" fill="#FD8F07"/>
<path d="M64.9688 64.9688C64.4966 64.9717 64.0338 64.8356 63.6384 64.5774C63.2429 64.3192 62.9322 63.9503 62.7449 63.5168C62.5576 63.0832 62.5021 62.6041 62.5852 62.1392C62.6683 61.6743 62.8864 61.2441 63.2123 60.9022L104.119 17.5898C104.559 17.1239 105.166 16.852 105.807 16.834C106.448 16.8159 107.07 17.0532 107.535 17.4935C108.001 17.9338 108.273 18.5412 108.291 19.182C108.309 19.8228 108.072 20.4445 107.632 20.9104C63.4048 67.7119 66.4848 64.9688 64.9688 64.9688ZM93.8438 69.7813C93.3659 69.7841 92.898 69.6445 92.4997 69.3803C92.1014 69.1161 91.7908 68.7392 91.6075 68.2978C91.4243 67.8564 91.3766 67.3704 91.4706 66.9018C91.5646 66.4332 91.796 66.0032 92.1354 65.6666L113.792 44.0104C114.016 43.786 114.282 43.608 114.575 43.4866C114.869 43.3652 115.183 43.3027 115.5 43.3027C115.817 43.3027 116.132 43.3652 116.425 43.4866C116.718 43.608 116.984 43.786 117.209 44.0104C117.433 44.2347 117.611 44.5011 117.732 44.7942C117.854 45.0873 117.916 45.4015 117.916 45.7188C117.916 46.0361 117.854 46.3503 117.732 46.6434C117.611 46.9365 117.433 47.2029 117.209 47.4272C93.8438 70.9122 95.2635 69.7813 93.8438 69.7813ZM86.6251 77.0001C86.1471 77.0028 85.6792 76.8632 85.2809 76.599C84.8826 76.3348 84.5721 75.958 84.3888 75.5166C84.2055 75.0751 84.1578 74.5892 84.2519 74.1205C84.3459 73.6519 84.5773 73.2219 84.9166 72.8854L87.3229 70.4791C87.776 70.026 88.3905 69.7715 89.0313 69.7715C89.6721 69.7715 90.2867 70.026 90.7398 70.4791C91.1929 70.9322 91.4474 71.5468 91.4474 72.1876C91.4474 72.8283 91.1929 73.4429 90.7398 73.896C88.1891 76.4466 87.8763 77.0001 86.6251 77.0001ZM127.531 64.9688C127.053 64.9716 126.585 64.832 126.187 64.5678C125.789 64.3036 125.478 63.9267 125.295 63.4853C125.112 63.0439 125.064 62.5579 125.158 62.0893C125.252 61.6207 125.484 61.1907 125.823 60.8541L134.245 52.4323C134.698 51.9791 135.312 51.7246 135.953 51.7246C136.594 51.7246 137.209 51.9791 137.662 52.4323C138.115 52.8854 138.369 53.4999 138.369 54.1407C138.369 54.7815 138.115 55.396 137.662 55.8491C128.614 64.9688 128.879 64.9688 127.531 64.9688ZM84.2188 108.281C83.7409 108.284 83.273 108.144 82.8747 107.88C82.4764 107.616 82.1658 107.239 81.9825 106.798C81.7993 106.356 81.7516 105.87 81.8456 105.402C81.9396 104.933 82.171 104.503 82.5104 104.167L113.792 72.8854C114.016 72.661 114.282 72.483 114.575 72.3616C114.869 72.2402 115.183 72.1777 115.5 72.1777C115.817 72.1777 116.132 72.2402 116.425 72.3616C116.718 72.483 116.984 72.661 117.209 72.8854C117.433 73.1097 117.611 73.3761 117.732 73.6692C117.854 73.9623 117.916 74.2765 117.916 74.5938C117.916 74.9111 117.854 75.2253 117.732 75.5184C117.611 75.8115 117.433 76.0779 117.209 76.3022C83.3045 110.182 85.6385 108.281 84.2188 108.281ZM40.9063 62.5626C40.4284 62.5653 39.9604 62.4257 39.5622 62.1615C39.1639 61.8973 38.8533 61.5205 38.67 61.0791C38.4868 60.6376 38.4391 60.1517 38.5331 59.683C38.6271 59.2144 38.8585 58.7844 39.1979 58.4479L65.6666 31.9791C66.1198 31.526 66.7343 31.2715 67.3751 31.2715C68.0159 31.2715 68.6304 31.526 69.0835 31.9791C69.5366 32.4322 69.7912 33.0468 69.7912 33.6876C69.7912 34.3284 69.5366 34.9429 69.0835 35.396C40.2807 64.1747 42.326 62.5626 40.9063 62.5626ZM31.2813 72.1876C30.8034 72.1903 30.3354 72.0507 29.9372 71.7865C29.5389 71.5223 29.2283 71.1455 29.045 70.7041C28.8618 70.2626 28.8141 69.7767 28.9081 69.308C29.0021 68.8394 29.2335 68.4094 29.5729 68.0729L31.9791 65.6666C32.2035 65.4423 32.4698 65.2643 32.763 65.1429C33.0561 65.0215 33.3703 64.959 33.6876 64.959C34.0049 64.959 34.319 65.0215 34.6122 65.1429C34.9053 65.2643 35.1717 65.4423 35.396 65.6666C35.6204 65.891 35.7983 66.1573 35.9198 66.4505C36.0412 66.7436 36.1037 67.0578 36.1037 67.3751C36.1037 67.6923 36.0412 68.0065 35.9198 68.2997C35.7983 68.5928 35.6204 68.8591 35.396 69.0835C32.8454 71.6341 32.5326 72.1876 31.2813 72.1876Z" fill="#68539B"/>
<path d="M113.094 108.281C113.094 108.919 112.84 109.531 112.389 109.983C111.938 110.434 111.326 110.688 110.688 110.688C110.049 110.688 109.437 110.434 108.986 109.983C108.535 109.531 108.281 108.919 108.281 108.281C108.281 107.643 108.535 107.031 108.986 106.58C109.437 106.129 110.049 105.875 110.688 105.875C111.326 105.875 111.938 106.129 112.389 106.58C112.84 107.031 113.094 107.643 113.094 108.281ZM101.062 40.9062C101.062 41.5444 100.809 42.1565 100.358 42.6077C99.9065 43.059 99.2944 43.3125 98.6562 43.3125C98.0181 43.3125 97.406 43.059 96.9548 42.6077C96.5035 42.1565 96.25 41.5444 96.25 40.9062C96.25 40.2681 96.5035 39.656 96.9548 39.2048C97.406 38.7535 98.0181 38.5 98.6562 38.5C99.2944 38.5 99.9065 38.7535 100.358 39.2048C100.809 39.656 101.062 40.2681 101.062 40.9062Z" fill="#FD8F07"/>
<path d="M117.906 26.4688C117.906 27.1069 117.653 27.719 117.201 28.1702C116.75 28.6215 116.138 28.875 115.5 28.875C114.862 28.875 114.25 28.6215 113.799 28.1702C113.347 27.719 113.094 27.1069 113.094 26.4688C113.094 25.8306 113.347 25.2185 113.799 24.7673C114.25 24.316 114.862 24.0625 115.5 24.0625C116.138 24.0625 116.75 24.316 117.201 24.7673C117.653 25.2185 117.906 25.8306 117.906 26.4688Z" fill="#FDA736"/>
<path d="M48.125 40.9062C48.125 41.5444 47.8715 42.1565 47.4202 42.6077C46.969 43.059 46.3569 43.3125 45.7188 43.3125C45.0806 43.3125 44.4685 43.059 44.0173 42.6077C43.566 42.1565 43.3125 41.5444 43.3125 40.9062C43.3125 40.2681 43.566 39.656 44.0173 39.2048C44.4685 38.7535 45.0806 38.5 45.7188 38.5C46.3569 38.5 46.969 38.7535 47.4202 39.2048C47.8715 39.656 48.125 40.2681 48.125 40.9062Z" fill="#FED370"/>
<path d="M132.344 43.3125C132.344 43.9507 132.09 44.5627 131.639 45.014C131.188 45.4652 130.576 45.7188 129.938 45.7188C129.299 45.7188 128.687 45.4652 128.236 45.014C127.785 44.5627 127.531 43.9507 127.531 43.3125C127.531 42.6743 127.785 42.0623 128.236 41.611C128.687 41.1598 129.299 40.9062 129.938 40.9062C130.576 40.9062 131.188 41.1598 131.639 41.611C132.09 42.0623 132.344 42.6743 132.344 43.3125ZM24.0625 105.875C24.0625 106.513 23.809 107.125 23.3577 107.576C22.9065 108.028 22.2944 108.281 21.6562 108.281C21.0181 108.281 20.406 108.028 19.9548 107.576C19.5035 107.125 19.25 106.513 19.25 105.875C19.25 105.237 19.5035 104.625 19.9548 104.174C20.406 103.722 21.0181 103.469 21.6562 103.469C22.2944 103.469 22.9065 103.722 23.3577 104.174C23.809 104.625 24.0625 105.237 24.0625 105.875Z" fill="#FD8F07"/>
<path d="M141.969 74.5938C141.969 75.2319 141.715 75.844 141.264 76.2952C140.813 76.7465 140.201 77 139.562 77C138.924 77 138.312 76.7465 137.861 76.2952C137.41 75.844 137.156 75.2319 137.156 74.5938C137.156 73.9556 137.41 73.3435 137.861 72.8923C138.312 72.441 138.924 72.1875 139.562 72.1875C140.201 72.1875 140.813 72.441 141.264 72.8923C141.715 73.3435 141.969 73.9556 141.969 74.5938Z" fill="#FED370"/>
<path d="M57.75 134.75C57.75 135.388 57.4965 136 57.0452 136.451C56.594 136.903 55.9819 137.156 55.3438 137.156C54.7056 137.156 54.0935 136.903 53.6423 136.451C53.191 136 52.9375 135.388 52.9375 134.75C52.9375 134.112 53.191 133.5 53.6423 133.049C54.0935 132.597 54.7056 132.344 55.3438 132.344C55.9819 132.344 56.594 132.597 57.0452 133.049C57.4965 133.5 57.75 134.112 57.75 134.75Z" fill="#FD8F07"/>
<path d="M55.3438 19.25C55.3438 19.8882 55.0902 20.5002 54.639 20.9515C54.1877 21.4027 53.5757 21.6562 52.9375 21.6562C52.2993 21.6562 51.6873 21.4027 51.236 20.9515C50.7848 20.5002 50.5312 19.8882 50.5312 19.25C50.5312 18.6118 50.7848 17.9998 51.236 17.5485C51.6873 17.0973 52.2993 16.8437 52.9375 16.8438C53.5757 16.8437 54.1877 17.0973 54.639 17.5485C55.0902 17.9998 55.3438 18.6118 55.3438 19.25Z" fill="#FD7504"/>
<path d="M21.6562 72.1875C21.6562 72.8257 21.4027 73.4377 20.9515 73.889C20.5002 74.3402 19.8882 74.5938 19.25 74.5938C18.6118 74.5938 17.9998 74.3402 17.5485 73.889C17.0973 73.4377 16.8438 72.8257 16.8438 72.1875C16.8438 71.5493 17.0973 70.9373 17.5485 70.486C17.9998 70.0348 18.6118 69.7812 19.25 69.7812C19.8882 69.7812 20.5002 70.0348 20.9515 70.486C21.4027 70.9373 21.6562 71.5493 21.6562 72.1875Z" fill="#FED370"/>
<path d="M96.25 125.125V122.719C96.25 122.081 96.5035 121.469 96.9548 121.017C97.406 120.566 98.0181 120.312 98.6562 120.312C99.2944 120.312 99.9065 120.566 100.358 121.017C100.809 121.469 101.062 122.081 101.062 122.719V125.125C101.062 125.763 100.809 126.375 100.358 126.826C99.9065 127.278 99.2944 127.531 98.6562 127.531C98.0181 127.531 97.406 127.278 96.9548 126.826C96.5035 126.375 96.25 125.763 96.25 125.125ZM105.875 132.344H103.469C102.831 132.344 102.219 132.09 101.767 131.639C101.316 131.188 101.062 130.576 101.062 129.938C101.062 129.299 101.316 128.687 101.767 128.236C102.219 127.785 102.831 127.531 103.469 127.531H105.875C106.513 127.531 107.125 127.785 107.576 128.236C108.028 128.687 108.281 129.299 108.281 129.938C108.281 130.576 108.028 131.188 107.576 131.639C107.125 132.09 106.513 132.344 105.875 132.344ZM93.8438 132.344H91.4375C90.7993 132.344 90.1873 132.09 89.736 131.639C89.2848 131.188 89.0312 130.576 89.0312 129.938C89.0312 129.299 89.2848 128.687 89.736 128.236C90.1873 127.785 90.7993 127.531 91.4375 127.531H93.8438C94.4819 127.531 95.094 127.785 95.5452 128.236C95.9965 128.687 96.25 129.299 96.25 129.938C96.25 130.576 95.9965 131.188 95.5452 131.639C95.094 132.09 94.4819 132.344 93.8438 132.344ZM96.25 137.156V134.75C96.25 134.112 96.5035 133.5 96.9548 133.049C97.406 132.597 98.0181 132.344 98.6562 132.344C99.2944 132.344 99.9065 132.597 100.358 133.049C100.809 133.5 101.062 134.112 101.062 134.75V137.156C101.062 137.794 100.809 138.406 100.358 138.858C99.9065 139.309 99.2944 139.562 98.6562 139.562C98.0181 139.562 97.406 139.309 96.9548 138.858C96.5035 138.406 96.25 137.794 96.25 137.156Z" fill="#FDA736"/>
<path d="M74.5938 14.4375V12.0312C74.5938 11.3931 74.8473 10.781 75.2985 10.3298C75.7498 9.87852 76.3618 9.625 77 9.625C77.6382 9.625 78.2502 9.87852 78.7015 10.3298C79.1527 10.781 79.4062 11.3931 79.4062 12.0312V14.4375C79.4062 15.0757 79.1527 15.6877 78.7015 16.139C78.2502 16.5902 77.6382 16.8438 77 16.8438C76.3618 16.8438 75.7498 16.5902 75.2985 16.139C74.8473 15.6877 74.5938 15.0757 74.5938 14.4375ZM84.2188 21.6562H81.8125C81.1743 21.6562 80.5623 21.4027 80.111 20.9515C79.6598 20.5002 79.4062 19.8882 79.4062 19.25C79.4062 18.6118 79.6598 17.9998 80.111 17.5485C80.5623 17.0973 81.1743 16.8438 81.8125 16.8438H84.2188C84.8569 16.8438 85.469 17.0973 85.9202 17.5485C86.3715 17.9998 86.625 18.6118 86.625 19.25C86.625 19.8882 86.3715 20.5002 85.9202 20.9515C85.469 21.4027 84.8569 21.6562 84.2188 21.6562ZM72.1875 21.6562H69.7812C69.1431 21.6562 68.531 21.4027 68.0798 20.9515C67.6285 20.5002 67.375 19.8882 67.375 19.25C67.375 18.6118 67.6285 17.9998 68.0798 17.5485C68.531 17.0973 69.1431 16.8438 69.7812 16.8438H72.1875C72.8257 16.8438 73.4377 17.0973 73.889 17.5485C74.3402 17.9998 74.5938 18.6118 74.5938 19.25C74.5938 19.8882 74.3402 20.5002 73.889 20.9515C73.4377 21.4027 72.8257 21.6562 72.1875 21.6562ZM74.5938 26.4688V24.0625C74.5938 23.4243 74.8473 22.8123 75.2985 22.361C75.7498 21.9098 76.3618 21.6562 77 21.6562C77.6382 21.6562 78.2502 21.9098 78.7015 22.361C79.1527 22.8123 79.4062 23.4243 79.4062 24.0625V26.4688C79.4062 27.1069 79.1527 27.719 78.7015 28.1702C78.2502 28.6215 77.6382 28.875 77 28.875C76.3618 28.875 75.7498 28.6215 75.2985 28.1702C74.8473 27.719 74.5938 27.1069 74.5938 26.4688Z" fill="#FED370"/>
</svg>
